<svg xmlns="http://www.w3.org/2000/svg" id="svg2" viewBox="42.48 242.32 413.24 176.76">
  <desc fill="#f50000">Source: openclipart.org/detail/209545</desc>
  <g id="Layer_1" transform="matrix(1, 0, 0, 1, 87.328972, 32.927319)">
    <g transform="matrix(1, 0, 0, 1, -68.295052, 53.393398)">
      <g>
        <path d="M 422.855 156.002 L 337.172 156.002 C 337.033 156.002 336.896 156.021 336.758 156.034 C 309.146 156.047 284.435 159.374 268.796 162.113 C 265.144 162.752 261.703 164.472 258.609 167.136 L 201.528 167.136 C 198.434 164.473 194.993 162.754 191.34 162.113 C 175.702 159.374 150.989 156.047 123.375 156.034 C 123.238 156.021 123.103 156.002 122.965 156.002 L 37.282 156.002 C 29.653 156.002 23.448 165.679 23.448 177.573 L 23.448 199.841 C 23.448 211.736 29.653 221.412 37.282 221.412 L 46.569 221.412 L 51.336 265.168 C 54.544 294.599 69.008 317.844 88.185 324.384 C 106.366 330.585 123.937 332.767 139.671 332.767 C 154.811 332.767 168.248 330.745 178.881 328.335 C 193.706 324.975 205.2 307.48 207.482 284.799 L 211.825 241.604 C 212.037 241.358 212.243 241.097 212.439 240.807 C 215.012 236.995 221.172 232.545 230.071 232.545 C 238.969 232.545 245.13 236.995 247.704 240.807 C 247.9 241.098 248.105 241.358 248.317 241.604 L 252.659 284.799 C 254.94 307.478 266.435 324.975 281.26 328.335 C 291.894 330.745 305.328 332.767 320.47 332.767 C 336.202 332.767 353.778 330.583 371.958 324.384 C 391.133 317.842 405.597 294.599 408.804 265.168 L 413.574 221.412 L 422.855 221.412 C 430.485 221.412 436.69 211.736 436.69 199.841 L 436.69 177.573 C 436.69 165.679 430.485 156.002 422.855 156.002 Z M 50.087 177.732 C 46.882 184.498 45.112 192.379 44.891 200.537 L 37.282 200.537 C 37.037 200.537 36.836 200.225 36.836 199.841 L 36.836 177.573 C 36.836 177.189 37.037 176.878 37.282 176.878 L 50.513 176.878 C 50.371 177.164 50.224 177.44 50.087 177.732 Z M 201.794 206.578 L 194.255 281.567 C 192.889 295.149 185.937 305.642 176.953 307.677 C 156.372 312.341 124.758 315.489 91.043 303.991 C 77.227 299.278 66.822 282.667 64.534 261.67 L 58.444 205.779 C 57.841 200.247 58.697 194.69 60.855 190.132 C 63.029 185.545 66.227 182.609 69.862 181.867 C 87.724 178.22 106.036 176.896 123.231 176.896 C 150.254 176.896 174.51 180.172 189.847 182.858 C 193.649 183.523 196.994 186.447 199.265 191.091 C 201.451 195.56 202.349 201.059 201.794 206.578 Z M 245.117 209.811 L 245.697 215.571 C 241.004 213.052 235.651 211.67 230.069 211.67 C 224.487 211.67 219.134 213.052 214.441 215.571 L 215.021 209.811 C 215.774 202.314 215.203 194.843 213.42 188.01 L 246.716 188.01 C 244.935 194.843 244.364 202.313 245.117 209.811 Z M 401.694 205.781 L 395.604 261.67 C 393.316 282.665 382.909 299.277 369.094 303.991 C 335.38 315.489 303.766 312.341 283.185 307.677 C 274.201 305.642 267.249 295.149 265.883 281.567 L 258.344 206.578 C 257.791 201.059 258.688 195.559 260.873 191.091 C 263.146 186.447 266.49 183.523 270.291 182.858 C 295.386 178.463 344.345 172.491 390.276 181.868 C 393.911 182.61 397.11 185.547 399.283 190.134 C 401.441 194.691 402.297 200.25 401.694 205.781 Z M 423.302 199.841 C 423.302 200.225 423.101 200.537 422.855 200.537 L 415.247 200.537 C 415.027 192.379 413.258 184.498 410.053 177.732 C 409.914 177.441 409.769 177.163 409.627 176.878 L 422.855 176.878 C 423.101 176.878 423.302 177.189 423.302 177.573 L 423.302 199.841 Z" style="" fill="#f50000"/>
        <g id="Capa_1" transform="matrix(1.391707, 0, 0, 1.391707, -102.073914, -91.742294)" style="">
          <g transform="matrix(1, 0, 0, 1, 318.297943, 193.746231)">
            <path d="M 19.653 27.605 L -11.509 76.196 C -11.784 76.624 -12.228 76.624 -12.502 76.196 L -30.199 48.605 C -30.469 48.179 -30.469 47.486 -30.199 47.058 L -25.899 40.354 C -25.619 39.927 -25.179 39.927 -24.909 40.354 L -12.005 60.466 L 14.362 19.353 C 14.637 18.926 15.08 18.926 15.354 19.353 L 19.653 26.057 C 19.928 26.484 19.928 27.176 19.653 27.605 Z" style="" fill="#f50000"/>
          </g>
        </g>
      </g>
    </g>
  </g>
</svg>